<svg version="1.2" xmlns="http://www.w3.org/2000/svg" viewBox="0 0 996 896" width="1000" height="896">
	<title>image</title>
	<style>
		.s0 { fill: #ddb245 } 
	</style>
	<path id="Path 0" class="s0" d="m258.3 81.7c-4 0.2-7.3 0.8-7.3 1.3 0 0.6-2.8 1-6.5 1-3.6 0-6.5 0.3-6.5 0.7 0 0.5-5.5 1.1-12.2 1.6-6.8 0.4-12.4 1.2-12.6 1.7-0.1 0.6-1.3 1-2.7 1-1.4 0-2.5 0.4-2.5 1 0 0.5-1.1 1-2.5 1-1.4 0-2.5 0.4-2.6 0.9 0 0.5-1.5 1.1-3.2 1.5-1.8 0.3-3.9 1.5-4.7 2.6-0.8 1.1-2.1 2-2.8 2-0.6 0-1.2 0.4-1.2 1 0 0.5-1.5 1.2-3.3 1.5-1.7 0.3-3.9 1.4-4.7 2.5-0.8 1.1-1.9 2-2.3 2-0.5 0-1.5 0.7-2.3 1.5-0.9 0.8-2.4 1.5-3.5 1.5-1.1 0-2.1 0.9-2.4 2-0.3 1.1-1.3 2-2.4 2-1.1 0-2.6 0.7-3.5 1.5-0.8 0.8-1.8 1.5-2.3 1.5-0.4 0-1.5 0.9-2.3 2-0.8 1.1-2 2-2.7 2-0.7 0-2.3 1.2-3.7 2.7-1.4 1.6-2.9 3.2-3.5 3.8-0.5 0.5-2 2-3.3 3.2-1.3 1.2-2.9 2.9-3.6 3.8-0.6 0.8-1.2 1.8-1.2 2.2 0 0.5-1.1 1.7-2.5 2.8-1.4 1.1-2.6 2.6-2.5 3.2 0 0.7-1.6 2.8-3.5 4.5-1.9 1.8-3.4 4.1-3.5 5 0 1-0.9 2-2 2.3-1.1 0.3-2.2 1.4-2.5 2.5-0.3 1.1-1 2-1.5 2-0.6 0-1 0.4-1 1 0 0.6-1.1 2.1-2.5 3.5-1.4 1.4-2.5 3.1-2.5 3.7 0 0.7-0.9 2-2 2.8-1.1 0.8-2 1.8-2 2.2 0 0.5-0.7 1.5-1.5 2.3-0.8 0.8-1.5 2.4-1.5 3.5 0 1.1-0.5 2-1 2-0.6 0-1 0.7-1 1.5 0 0.8-0.5 1.5-1 1.5-0.6 0-1.2 1.1-1.5 2.5-0.3 1.4-1 2.5-1.5 2.5-0.6 0-1 0.9-1 2 0 1.1-0.5 2-1 2-0.6 0-1 0.7-1 1.5 0 0.8-0.5 1.5-1 1.5-0.6 0-1.2 1.6-1.5 3.5-0.3 1.9-1 3.5-1.5 3.5-0.6 0-1 0.9-1 2 0 1.2-0.8 2.2-2 2.5-1.4 0.4-2 1.3-2 3.5 0 1.8-0.6 3.2-1.5 3.5-0.8 0.3-1.5 1.6-1.5 3 0 1.4-0.5 2.5-1 2.5-0.6 0-1 0.9-1 2 0 1.1-0.5 2-1 2-0.6 0-1.2 2.2-1.5 5-0.3 2.7-1 5-1.5 5-0.6 0-1 1.3-1 3 0 1.7-0.3 3-0.8 3-0.4 0-1 1.8-1.5 4-0.4 2.2-1.2 4-1.7 4-0.6 0-1 1.1-1 2.5 0 1.4-0.5 2.5-1 2.5-0.6 0-1 0.9-1 2 0 1.1-0.6 2.2-1.3 2.3-0.9 0.3-1.2 4.6-1.2 17.2 0 12.6 0.3 16.9 1.2 17.2 0.7 0.1 1.3 1 1.3 1.8 0 0.8 0.4 1.5 1 1.5 0.5 0 1 0.9 1 2 0 1.1 0.7 2.2 1.5 2.5 0.8 0.3 1.5 1.4 1.5 2.5 0 1.2 0.8 2.2 2 2.5 1.1 0.3 2 0.9 2 1.5 0 0.6 0.6 1 1.2 1 0.7 0 2 0.9 2.8 2 0.8 1.1 3 2.2 4.7 2.5 1.8 0.3 3.3 0.9 3.3 1.5 0 0.6 2 1 4.5 1 2.5 0 4.5 0.4 4.5 1 0 0.6 1.8 1 4 1 2.2 0 4-0.4 4-1 0-0.6 1.6-1 3.5-1 1.9 0 3.5-0.4 3.5-1 0-0.6 1.5-1.2 3.2-1.5 1.8-0.3 4-1.4 4.8-2.5 0.8-1.1 2.1-2 2.7-2 0.7 0 1.3-0.4 1.3-1 0-0.6 1.6-2.6 3.5-4.5 1.9-1.9 3.5-4.2 3.5-5 0-0.8 0.4-1.5 1-1.5 0.5 0 1-1.1 1-2.5 0-1.4 0.3-2.5 0.7-2.5 0.5 0 1.1-2.3 1.5-5.2 0.4-2.9 1.2-5.4 1.8-5.6 0.5-0.1 1-0.9 1-1.7 0-0.8 0.4-1.5 1-1.5 0.5 0 1-1.1 1-2.5 0-1.4 0.4-2.5 1-2.5 0.5 0 1.2-1.6 1.5-3.5 0.3-1.9 0.9-3.5 1.5-3.5 0.5 0 1-1.1 1-2.5 0-1.4 0.4-2.5 1-2.5 0.5 0 1-1.3 1-3 0-1.7 0.4-3 1-3 0.5 0 1.2-1.6 1.5-3.5 0.3-1.9 0.9-3.5 1.5-3.5 0.5 0 1-0.7 1-1.5 0-0.8 0.4-1.5 1-1.5 0.5 0 1.2-1.1 1.5-2.5 0.3-1.4 0.9-2.5 1.5-2.5 0.5 0 1-0.9 1-2 0-1.1 0.4-2 1-2 0.5 0 1-0.7 1-1.5 0-0.8 0.4-1.5 1-1.5 0.5 0 1.2-1.5 1.5-3.3 0.3-1.7 1.4-3.9 2.5-4.7 1.1-0.8 2-2.1 2-2.8 0-0.6 0.4-1.2 1-1.2 0.5 0 1.3-1 1.7-2.3 0.3-1.2 2.6-4.1 5-6.5 2.3-2.3 4.3-4.8 4.3-5.5 0.1-0.6 1.6-2.7 3.5-4.5 1.9-1.7 3.5-3.6 3.5-4.2 0-0.6 1.6-2.6 3.5-4.5 1.9-1.9 3.5-3.7 3.5-4 0-0.3 0.6-1.2 1.4-2 0.8-0.8 1.9-1.5 2.5-1.5 0.6 0 1.1-0.4 1.1-1 0-0.6 1-1.3 2.2-1.6 1.3-0.4 3-1.5 3.8-2.5 0.8-1 1.9-1.8 2.3-1.9 0.5 0 1.5-0.7 2.3-1.5 0.9-0.8 2.4-1.5 3.5-1.5 1 0 1.9-0.4 1.9-1 0-0.6 0.7-1 1.5-1 0.8 0 1.5-0.4 1.5-1 0-0.6 0.9-1 2-1 1.1 0 2.2-0.7 2.5-1.5 0.4-1.1 2.2-1.5 7.5-1.5 4 0 7-0.4 7-1 0-0.6 3.3-1 8-1 4.7 0 8-0.4 8-1 0-0.6 6.2-1 16.5-1 10.3 0 16.5 0.4 16.5 1 0 0.6 1.6 1 3.5 1 1.9 0 3.5 0.4 3.5 1 0 0.6 3.4 1.2 7.5 1.5 4.1 0.3 7.5 0.9 7.5 1.5 0 0.6 2 1 4.5 1 2.5 0 4.5 0.4 4.5 1 0 0.6 2 1 4.5 1 2.5 0 4.5 0.4 4.5 1 0 0.6 2.2 1.2 5 1.5 2.7 0.3 5 0.9 5 1.5 0 0.6 2 1 4.5 1 2.5 0 4.5 0.4 4.5 1 0 0.6 1.1 1 2.5 1 1.4 0 2.5 0.4 2.5 1 0 0.6 2.7 1.3 6 1.7 3.3 0.5 6 1.1 6 1.5 0 0.5 0.7 0.8 1.5 0.8 0.8 0 1.5 0.4 1.5 1 0 0.6 1.4 1 3 1 1.8 0 3.2 0.6 3.5 1.5 0.3 0.8 1.3 1.5 2.2 1.5 1 0 2.5 0.9 3.3 2 0.8 1.1 3 2.2 4.7 2.5 1.8 0.3 3.3 0.9 3.3 1.5 0 0.6 0.6 1 1.2 1 0.7 0.1 2 0.9 2.8 1.9 0.8 1 2.5 2.1 3.7 2.5 1.3 0.3 2.3 1 2.3 1.6 0 0.6 0.7 1 1.5 1 0.8 0 1.5 0.4 1.5 1 0 0.6 0.9 1 2 1 1.1 0 2 0.4 2 1 0 0.6 1 1.3 2.2 1.6 1.3 0.4 3 1.5 3.8 2.5 0.8 1 2.1 1.8 2.7 1.9 0.7 0 1.3 0.4 1.3 1 0 0.6 1.1 1.2 2.5 1.5 1.4 0.3 2.5 0.9 2.5 1.5 0 0.6 0.9 1 2 1 1.1 0 2 0.4 2 1 0 0.6 1.6 1.2 3.5 1.5 1.9 0.3 3.5 0.9 3.5 1.5 0 0.6 0.7 1 1.5 1 0.8 0 1.5 0.4 1.5 1 0 0.6 0.9 1 2 1 1.1 0 2 0.3 2 0.7 0 0.5 1.7 1.1 3.7 1.5 2.1 0.4 4.5 1.7 5.3 2.8 0.8 1.1 2.3 2 3.2 2 1 0 2 0.7 2.3 1.5 0.3 0.8 1.3 1.5 2.2 1.5 1 0 2.5 0.9 3.3 2 0.8 1.1 2.1 2 2.7 2 0.7 0 1.3 0.4 1.3 1 0 0.6 1.6 1.2 3.5 1.5 1.9 0.3 3.5 0.9 3.5 1.5 0 0.6 0.7 1 1.5 1 0.8 0 1.5 0.4 1.5 1 0 0.6 1.6 1.2 3.5 1.5 1.9 0.3 3.5 0.9 3.5 1.5 0 0.6 0.9 1 2 1 1.1 0 2 0.4 2 1 0 0.6 0.7 1 1.5 1 0.8 0 1.5 0.4 1.5 1 0 0.6 1.5 1.2 3.2 1.5 1.8 0.3 4 1.4 4.8 2.5 0.8 1.1 2.1 2 2.7 2 0.7 0 1.3 0.4 1.3 1 0 0.6 1.6 1.2 3.5 1.5 1.9 0.3 3.5 0.9 3.5 1.5 0 0.6 0.9 1 2 1 1.1 0 2 0.4 2 1 0 0.6 1.1 1 2.5 1 1.4 0 2.5 0.4 2.5 1 0 0.6 1.6 1.2 3.5 1.5 1.9 0.3 3.5 0.9 3.5 1.5 0 0.6 1.1 1 2.5 1 1.4 0 2.5 0.4 2.5 1 0 0.6 2 1.2 4.5 1.5 2.5 0.3 4.5 0.9 4.5 1.5 0 0.6 0.7 1 1.5 1 0.8 0 1.5 0.4 1.5 1 0 0.6 1.4 1 3 1 1.6 0 3 0.4 3 1 0 0.6 2.2 1.2 5 1.5 2.7 0.3 5 0.9 5 1.5 0 0.6 1.1 1 2.5 1 1.4 0 2.5 0.4 2.5 1 0 0.6 1.1 1 2.5 1 1.4 0 2.5 0.4 2.5 1 0 0.6 3.1 1.2 7 1.5 3.9 0.3 7 0.9 7 1.5 0 0.6 1.1 1 2.5 1 1.4 0 2.5 0.4 2.5 1 0 0.6 2.5 1 5.5 1 3.6 0 5.6 0.4 5.8 1.2 0.3 1 8.4 1.3 36.2 1.3 27.8 0 35.9-0.3 36.2-1.3 0.2-0.6 1.8-1.2 3.8-1.2 1.9 0 3.5-0.4 3.5-1 0-0.6 1.4-1 3-1 1.6 0 3-0.4 3-1 0-0.6 2.9-1.2 6.5-1.5 3.6-0.3 6.5-0.9 6.5-1.5 0-0.6 1.1-1 2.5-1 1.4 0 2.5-0.4 2.5-1 0-0.6 1.1-1 2.5-1 1.4 0 2.5-0.4 2.5-1 0-0.6 1.6-1.2 3.5-1.5 1.9-0.3 3.5-0.9 3.5-1.5 0-0.6 0.7-1 1.5-1 0.8 0 1.5-0.4 1.5-1 0-0.6 0.9-1 2-1 1.1 0 2-0.4 2-1 0-0.6 0.7-1 1.5-1 0.8 0 2.6-1.1 4-2.5 1.4-1.4 3.9-2.8 5.5-3.3 1.7-0.4 3-1 3-1.5 0-0.4 0.6-0.7 1.2-0.7 0.7 0 2-0.9 2.8-2 0.8-1.1 2.9-2.3 4.5-2.5 1.6-0.3 3.7-1.5 4.5-2.7 0.8-1.1 2.1-2.7 2.8-3.4 0.7-0.8 2.2-1.4 3.3-1.4 1 0 1.9-0.4 1.9-1 0-0.6 2.3-3.1 5.1-5.8 2.8-2.6 5.4-5.1 5.9-5.7 0.5-0.6 2.1-2.1 3.4-3.5 1.4-1.4 3.2-3.1 4.1-3.8 0.8-0.6 1.5-2.1 1.5-3.2 0-1.1 0.3-2 0.7-2 0.5 0 1.8-0.7 3-1.7 1.2-1 2.3-2.5 2.3-3.3 0-0.8 1.8-3.2 4-5.3 2.2-2 4-4.1 4-4.7 0-0.6 1.6-2.5 3.5-4.3 1.9-1.7 3.4-4 3.5-5 0-0.9 0.9-1.9 2-2.2 1.2-0.3 2-1.3 2-2.5 0-1.1 0.7-2.7 1.5-3.5 0.8-0.8 1.5-1.9 1.5-2.5 0-0.6 0.5-1 1-1 0.5 0 1-0.7 1-1.5 0-0.8 0.5-1.5 1-1.5 0.5 0 1-0.9 1-2 0-1.1 0.7-2.7 1.5-3.5 0.8-0.8 1.5-1.9 1.5-2.5 0-0.6 0.5-1 1-1 0.5 0 1.2-1.6 1.5-3.5 0.3-1.9 1-3.5 1.5-3.5 0.5 0 1-0.9 1-2 0-1.1 0.5-2 1-2 0.5 0 1-0.7 1-1.5 0-0.8 0.5-1.5 1-1.5 0.5 0 1.2-1.6 1.5-3.5 0.3-1.9 1-3.5 1.5-3.5 0.5 0 1-0.7 1-1.5 0-0.8 0.5-1.5 1-1.5 0.5 0 1-0.9 1-2 0-1.1 0.5-2.1 1.1-2.3 0.6-0.1 1.4-2.3 1.7-5 0.4-2.6 1-4.7 1.4-4.7 0.5 0 0.8-5.2 0.8-11.5 0-6.3-0.3-11.5-0.8-11.5-0.4 0-1-1.8-1.5-4-0.4-2.2-1.2-4-1.7-4-0.5 0-1-0.8-1-1.8 0-0.9-0.9-2.4-2-3.2-1.1-0.8-2-2-2-2.5 0-0.5-0.7-2-1.7-3.2-1-1.2-2.5-2.2-3.3-2.2-0.8 0-2.4-1.2-3.5-2.6-1.1-1.4-2.6-2.5-3.3-2.5-0.6 0-1.2-0.5-1.2-1 0-0.5-2-1.2-4.5-1.5-2.5-0.3-4.5-1-4.5-1.5 0-0.6-3.8-1-9.5-1-5.7 0-9.5 0.4-9.5 1 0 0.5-2.5 1.2-5.5 1.5-4.4 0.4-5.6 0.9-6 2.5-0.3 1.1-1.2 2-2 2-0.8 0-4 2.5-7 5.5-3 3-5.5 6.2-5.5 7 0 0.8-0.5 1.5-1 1.5-0.5 0-1 0.7-1 1.5 0 0.8-0.5 1.5-1 1.5-0.5 0-1.2 2-1.5 4.5-0.3 2.5-1 4.5-1.5 4.5-0.5 0-1 1-1 2.2 0 1.3-0.9 3-2 3.8-1.1 0.8-2.2 3-2.5 4.7-0.3 1.8-1 3.3-1.5 3.3-0.5 0-1 0.7-1 1.5 0 0.8-0.5 1.5-1 1.5-0.5 0-1 0.9-1 2 0 1.1-0.5 2-1 2-0.5 0-1.2 1.6-1.5 3.5-0.3 1.9-1 3.5-1.5 3.5-0.5 0-1 0.7-1 1.5 0 0.8-0.5 1.5-1 1.5-0.5 0-1 0.8-1 1.7 0.1 1-1.1 2.7-2.5 3.8-1.4 1.1-2.5 2.6-2.5 3.2 0 0.7-1.6 2.9-3.5 4.8-1.9 1.9-3.5 3.7-3.5 4 0 0.3-0.6 1.2-1.3 2-0.6 0.8-1.8 2.1-2.5 3-0.6 0.8-1.2 1.7-1.2 2 0 0.3-2 2.5-4.5 5-2.5 2.5-4.5 5.2-4.5 6 0 0.8-0.7 1.5-1.5 1.5-0.8 0-2.6 1.1-4 2.5-1.4 1.4-3.9 2.8-5.5 3.2-1.7 0.5-3 1.1-3 1.5 0 0.5-0.5 0.8-1 0.8-0.6 0-2.2 1.1-3.6 2.5-1.4 1.4-3 2.5-3.7 2.5-0.7 0-1.9 0.9-2.7 2-0.8 1.1-2.1 2-2.8 2-0.6 0-1.2 0.3-1.2 0.7 0 0.5-2.7 1.1-6 1.5-3.3 0.5-6 1.2-6 1.8 0 0.6-1.6 1-3.5 1-1.9 0-3.5 0.4-3.5 1 0 0.6-2.5 1-5.5 1-3 0-5.5 0.4-5.5 1 0 0.6-5 1-13 1-8 0-13-0.4-13-1 0-0.6-2.7-1-6-1-3.3 0-6-0.4-6-1 0-0.6-1.6-1-3.5-1-1.9 0-3.5-0.4-3.5-1 0-0.6-3.1-1.2-7-1.5-3.9-0.3-7-0.9-7-1.5 0-0.6-1.1-1-2.5-1-1.4 0-2.5-0.4-2.5-1 0-0.6-0.7-1-1.5-1-0.8 0-1.5-0.3-1.5-0.8 0-0.4-2.3-1-5.2-1.4-2.9-0.4-5.4-1.2-5.6-1.8-0.1-0.5-1.3-1-2.7-1-1.4 0-2.5-0.4-2.5-1 0-0.6-0.7-1-1.5-1-0.8 0-1.5-0.3-1.5-0.8 0-0.4-1.9-1-4.2-1.4-2.4-0.4-4.4-1.2-4.6-1.7-0.1-0.6-1.3-1.1-2.7-1.1-1.4 0-2.5-0.4-2.5-1 0-0.6-1.5-1.2-3.3-1.5-1.7-0.3-3.9-1.4-4.7-2.5-0.8-1.1-2.1-2-2.8-2-0.6 0-1.2-0.4-1.2-1 0-0.6-1.6-1.2-3.5-1.5-1.9-0.3-3.5-0.9-3.5-1.5 0-0.6-0.9-1-2-1-1.1 0-2-0.4-2-1 0-0.6-0.7-1-1.5-1-0.8 0-1.5-0.4-1.5-1 0-0.6-1.6-1.2-3.5-1.5-1.9-0.3-3.5-0.9-3.5-1.5 0-0.6-0.9-1-2-1-1.1 0-2-0.4-2-1 0-0.6-0.7-1-1.5-1-0.8 0-1.5-0.4-1.5-1 0-0.6-0.9-1-2-1-1.1 0-2.2-0.7-2.5-1.5-0.3-0.8-1.4-1.5-2.5-1.5-1.1 0-2.2-0.7-2.5-1.5-0.3-0.8-1.3-1.5-2.3-1.5-0.9 0-2.4-0.9-3.2-2-0.8-1.1-2.1-2-2.8-2-0.6 0-1.2-0.4-1.2-1 0-0.6-1.6-1.2-3.5-1.5-1.9-0.3-3.5-0.9-3.5-1.5 0-0.6-0.9-1-2-1-1.1 0-2-0.4-2-1 0-0.6-1.1-1-2.5-1-1.4 0-2.5-0.4-2.5-1 0-0.6-1.6-1.2-3.5-1.5-1.9-0.3-3.5-0.9-3.5-1.5 0-0.6-0.6-1-1.3-1-0.6-0.1-1.9-0.9-2.7-1.9-0.8-1-2.5-2.1-3.8-2.5-1.2-0.3-2.2-1-2.2-1.6 0-0.6-0.9-1-2-1-1.1 0-2-0.4-2-1 0-0.6-1.1-1.2-2.5-1.5-1.4-0.3-2.5-0.9-2.5-1.5 0-0.6-0.6-1-1.3-1-0.6-0.1-1.9-0.9-2.7-1.9-0.8-1-2.5-2.1-3.8-2.5-1.2-0.3-2.2-1.1-2.2-1.6 0-0.5-0.9-1-2-1-1.1 0-2-0.5-2-1 0-0.5-0.7-1-1.5-1-0.8 0-1.5-0.5-1.5-1 0-0.5-0.9-1-2-1-1.1 0-2.2-0.7-2.5-1.5-0.3-0.8-1.4-1.5-2.5-1.5-1.2 0-2.2-0.8-2.5-2-0.3-1.4-1.6-2.2-4-2.5-1.9-0.3-3.5-1-3.5-1.5 0-0.5-0.9-1-2-1-1.1 0-2-0.5-2-1 0-0.5-2.3-1.2-5-1.5-2.8-0.3-5-1-5-1.5 0-0.5-1.1-1-2.5-1-1.4 0-2.5-0.5-2.5-1 0-0.5-1.4-1-3-1-1.6 0-3-0.3-3-0.8 0-0.4-2.7-1-6-1.5-3.3-0.4-6-1.2-6-1.7 0-0.5-1.6-1-3.5-1-1.9 0-3.5-0.5-3.5-1 0-0.5-1.1-1-2.5-1-1.4 0-2.5-0.3-2.5-0.8 0-0.4-2.7-1-6-1.5-3.3-0.4-6-1.2-6-1.7 0-0.5-2-1-4.5-1-2.5 0-4.5-0.5-4.5-1 0-0.5-1.8-1-4-1-2.2 0-4-0.5-4-1 0-0.6-4-1.2-9-1.5-5-0.3-9-0.9-9-1.5 0-0.5-1.6-1-3.5-1-1.9 0-3.6-0.4-3.8-1-0.1-0.6-9.1-1.1-22.2-1.3-12.1-0.1-25.3-0.1-29.3 0zm380 349.9c-8.5 0.3-14.2 0.8-14.2 1.4 0 0.6-3.8 1-9.5 1-5.7 0-9.5 0.4-9.5 1 0 0.6-3.5 1-8.5 1-5 0-8.5 0.4-8.5 1 0 0.6-4.8 1.2-11.5 1.5-6.7 0.3-11.5 0.9-11.5 1.5 0 0.6-3.2 1-7.5 1-4.3 0-7.5 0.4-7.5 1 0 0.6-13.2 1-37.5 1-24.3 0-37.5-0.4-37.5-1 0-0.7-15.3-1-44-1-24.2 0-44-0.3-44-0.7 0-0.5-13.2-1.1-29.2-1.5-18.2-0.5-29.4-1.2-29.6-1.8-0.1-0.6-4-1-9.2-1-5.3 0-9-0.4-9-1 0-0.7-20.5-1-59.5-1-39 0-59.5-0.3-59.5-1 0-0.6-12-1-34-1-22 0-34 0.4-34 1 0 0.6-3 1-7 1-4 0-7 0.4-7 1 0 0.6-1.8 1-4 1-2.2 0-4 0.3-4 0.8 0 0.4-1.9 1-4.2 1.4-2.4 0.4-4.4 1.2-4.6 1.7-0.1 0.6-1.1 1.1-2.2 1.1-1.1 0-2 0.5-2 1 0 0.6-0.7 1-1.5 1-0.8 0-1.5 0.5-1.5 1 0 0.6-0.7 1-1.5 1-0.8 0-3 1.6-5 3.5-1.9 1.9-3.5 4.2-3.5 5 0 0.8-0.5 1.5-1 1.5-0.6 0-1 0.7-1 1.5 0 0.8-0.5 1.5-1 1.5-0.6 0-1 3-1 7 0 4 0.4 7 1 7 0.5 0 1 1.4 1 3 0 1.7 0.4 3 1 3 0.5 0 1.2 1.1 1.5 2.5 0.3 1.4 1.4 2.7 2.5 3 1.1 0.3 2 1 2 1.5 0 0.6 0.6 1 1.2 1 0.7 0 2 0.9 2.8 2 1 1.4 3.3 2.2 7.3 2.7 3.1 0.5 5.7 1.1 5.7 1.6 0 0.4 0.8 0.7 1.7 0.7 1.2 0 2.1 1 2.5 3 0.5 1.7 3.6 5.8 7.3 9.5 3.6 3.6 7.2 6.5 8 6.5 0.8 0 1.5 0.5 1.5 1 0 0.5 1.1 1 2.5 1 1.4 0 2.6 0.5 2.7 1.1 0.2 0.8 7.3 1.1 23.3 1 14-0.1 23.1-0.5 23.2-1.1 0.2-0.6 1.9-1 3.8-1 1.9 0 3.5 0.5 3.5 1 0 0.6 8.2 1.2 21.5 1.5 13.3 0.3 21.5 0.9 21.5 1.5 0 0.6 3.3 1 8 1 4.7 0 8 0.4 8 1 0 0.6 12.2 1 34.5 1 22.3 0 34.5-0.4 34.5-1 0-0.6 4.2-1 10.5-1 5.8 0 10.5-0.3 10.5-0.7 0-0.5 8.1-1.1 18-1.5 10.8-0.5 18-1.2 18-1.8 0-0.6 4.8-1 12.5-1 7.7 0 12.5-0.4 12.5-1 0-0.5 1.6-1 3.5-1 1.9 0 3.5 0.5 3.5 1 0 0.6 6.7 1 18 1 13.6 0 18.1 0.3 18.3 1.3 0.3 0.9 11.6 1.2 52.8 1.1 38.9-0.1 52.5-0.4 52.6-1.2 0.2-0.7 2.3-1.2 5.3-1.2 2.7 0 5-0.5 5-1 0-0.6 3.3-1 8-1 4.7 0 8-0.4 8-1 0-0.5 1.6-1 3.5-1 1.9 0 3.5 0.5 3.5 1 0 0.6 12.5 1 35.5 1 23 0 35.5 0.4 35.5 1 0 0.6 8.3 1 23 1 14.7 0 23-0.4 23-1 0-0.6 7.7-1 21-1 13.3 0 21-0.4 21-1 0-0.5 2.2-1 5-1 2.7 0 5 0.5 5 1 0 0.5 2 1 4.5 1 2.5 0 4.5-0.3 4.5-0.7 0-0.5 12.7-1.2 28.2-1.6 16.6-0.4 28.4-1.2 28.5-1.7 0.2-0.6 5.3-1 11.8-1 7 0 11.5-0.4 11.5-1 0-0.5 2.6-1.2 5.7-1.4 3.2-0.2 5.9-0.8 6-1.5 0.2-0.6 0.9-1.1 1.5-1.1 0.7-0.1 2-0.9 2.8-1.9 0.8-1 2.4-2 3.5-2.2 1.1-0.2 2.1-1.3 2.4-2.4 0.2-1.1 1.3-2.8 2.5-3.8 1.1-1 2.4-1.7 2.8-1.7 0.5 0 1-1.6 1.3-3.5 0.3-1.9 1-3.5 1.5-3.5 0.5 0 1-1.6 1-3.5 0-1.9 0.5-3.5 1-3.5 0.6 0 1-2.7 1-6 0-3.3-0.4-6-1-6-0.5 0-1-1.3-1-3 0-1.6-0.5-3-1-3-0.5 0-1-1.1-1-2.5 0-1.4-0.7-2.7-1.5-3-0.8-0.3-1.5-1.2-1.5-2 0-0.8-1.8-3.3-4-5.5-2.2-2.2-4.7-4-5.5-4-0.8 0-1.7-0.7-2-1.5-0.3-0.8-1.4-1.5-2.5-1.5-1.1 0-2-0.4-2-1 0-0.5-1.1-1-2.5-1-1.4 0-2.5-0.4-2.5-1 0-0.6-6.7-1-18-1-11.4 0-18.1-0.4-18.3-1-0.1-0.7-24.1-1.2-71.7-1.4-39.3-0.2-77.9-0.2-85.8 0zm169.8 232.2c0 0.4-12.5 1-27.7 1.5-16.5 0.4-27.9 1.2-28.1 1.7-0.1 0.6-3.6 1-7.7 1-4.3 0-7.5 0.4-7.5 1 0 0.6-2.7 1-6 1-4 0-6.1 0.4-6.3 1.3-0.3 0.9-26.8 1.2-128.2 1.2-101.4 0-127.9 0.3-128.2 1.3-0.2 0.8-3 1.2-9.8 1.2-5.7 0-9.5 0.4-9.5 1 0 0.6-3.5 1-8.5 1-4.7 0-8.6 0.4-8.8 0.9-0.1 0.5-7.9 1.3-17.4 1.7-9.5 0.4-17.2 1.1-17.2 1.5-0.1 0.5-5.5 0.9-12.1 0.9-7.3 0-12 0.4-12 1 0 0.6-5 1-13 1-8 0-13 0.4-13 1 0 0.6-9.2 1.2-24.5 1.5-15.3 0.3-24.5 0.9-24.5 1.5 0 0.6-5.8 1-15.5 1-9.7 0-15.5 0.4-15.5 1 0 0.7-24.7 1.1-71.7 1.3-56.3 0.1-71.7 0.5-72 1.5-0.2 0.6-1.4 1.2-2.8 1.2-1.4 0-2.5 0.5-2.5 1 0 0.6-1.1 1-2.5 1-1.4 0-2.5 0.5-2.5 1 0 0.6-1.6 1.2-3.5 1.5-1.9 0.3-3.5 1-3.5 1.5 0 0.6-0.9 1-2 1-1.2 0-2.2 0.8-2.5 2-0.3 1.1-0.8 2-1.3 2-0.4 0-1.7 0.7-2.9 1.7-1.2 1-2.2 2.6-2.3 3.6 0 0.9-0.7 1.9-1.5 2.2-0.8 0.3-1.5 1.6-1.5 3 0 1.4-0.5 2.5-1 2.5-0.6 0-1 1.6-1 3.5 0 1.9-0.6 3.7-1.3 4-1 0.4-1 0.6 0 1 0.9 0.3 1.3 2.6 1.3 6.5 0 3.3 0.4 6 1 6 0.5 0 1 0.9 1 2 0 1.1 0.4 2 1 2 0.5 0 1 0.7 1 1.5 0 0.8 1.1 2.5 2.5 3.8 1.3 1.2 3 2.7 3.7 3.3 0.7 0.6 2 2.1 2.8 3.3 1 1.4 3 2.3 5.7 2.6 2.4 0.3 4.3 1 4.3 1.5 0 0.6 4.2 1 10.5 1 6.3 0 10.5-0.4 10.5-1 0-0.6 5.4-1 14.2-1 13.5 0.1 14.4 0.2 16.1 2.3 1 1.2 1.7 2.5 1.7 3 0 0.4 1.8 2.5 4 4.7 2.2 2.2 4.7 4 5.5 4 0.8 0 1.5 0.5 1.5 1 0 0.6 0.7 1 1.5 1 0.8 0 1.7 0.6 1.8 1.3 0.3 0.9 6.9 1.2 29.3 1 20-0.1 29-0.5 29.1-1.2 0.2-0.7 3.8-1.1 9.8-1.1 5.7 0 9.5-0.4 9.5-1 0-0.5 2.5-1 5.5-1 3 0 5.5-0.3 5.5-0.7 0-0.5 10-1.2 22.2-1.6 12.3-0.5 22.4-1.3 22.5-1.8 0.2-0.5 5.2-0.9 11.3-0.9 6 0 11-0.3 11-0.7 0-0.5 17.9-1.2 39.7-1.6 23.9-0.5 39.9-1.2 40-1.7 0.2-0.6 15.6-1 40.3-1 26 0 40-0.3 40-1 0-0.7 28.7-1 84-1 46.2 0 84-0.3 84-0.7 0-0.5 19.5-1.2 43.2-1.6 26.3-0.5 43.4-1.1 43.5-1.7 0.2-0.6 5.1-1 11.3-1 6.7 0 11-0.4 11-1 0-0.6 3-1 7-1 3.8 0 7-0.3 7-0.7 0-0.5 4.6-1.2 10.2-1.6 5.7-0.5 10.4-1.2 10.5-1.8 0.2-0.5 3-0.9 6.3-0.9 3.3 0 6-0.4 6-1 0-0.5 2-1 4.5-1 2.5 0 4.6-0.4 4.7-1 0.2-0.5 6.3-1.3 13.6-1.7 7.2-0.5 13.2-1.1 13.2-1.5 0-0.5 2.7-0.8 6-0.8 3.3 0 6-0.3 6-0.7 0-0.5 2.3-1.1 5.2-1.5 2.9-0.4 5.4-1.2 5.5-1.8 0.2-0.5 0.8-1 1.3-1 0.6 0 2.2-1.1 3.6-2.5 1.4-1.4 3.1-2.5 3.9-2.5 0.8 0 1.5-0.8 1.5-1.7 0-1 1.1-2.7 2.5-3.8 1.4-1.1 2.6-2.8 2.5-3.7 0-1 0.4-1.8 1-1.8 0.5 0 1-0.7 1-1.5 0-0.8 0.4-1.5 1-1.5 0.5 0 1-2 1-4.5 0-2.7 0.5-4.7 1.2-5 1-0.4 1-0.6 0-1-0.6-0.3-1.2-1.2-1.2-2 0-0.8 0.6-1.7 1.2-2 1-0.4 1-0.6 0-1-0.7-0.3-1.2-2.3-1.2-5 0-2.5-0.5-4.5-1-4.5-0.6 0-1-0.7-1-1.5 0-0.8-0.5-1.5-1-1.5-0.6 0-1.2-1.1-1.5-2.5-0.3-1.4-1-2.5-1.5-2.5-0.6 0-1-0.7-1-1.5 0-0.8-0.9-2.4-2-3.5-1.1-1.1-2.6-2-3.3-2-0.6 0-1.9-0.9-2.7-2-0.8-1.1-3-2.2-4.8-2.5-1.7-0.3-3.2-0.9-3.2-1.5 0-0.5-1.1-1-2.5-1-1.4 0-2.5-0.4-2.5-1 0-0.5-1.8-1-4-1-2.2 0-4.1-0.5-4.3-1-0.1-0.7-8.2-1.4-22-1.8-11.9-0.4-21.7-1-21.7-1.4 0-0.5-2.3-0.8-5-0.8-2.8 0-5 0.3-5 0.8z"/>
</svg>